<svg xmlns="http://www.w3.org/2000/svg" xmlns:xlink="http://www.w3.org/1999/xlink" width="247" zoomAndPan="magnify" viewBox="0 0 185.25 213" height="284" preserveAspectRatio="xMidYMid meet" version="1.0"><defs><g/><clipPath id="6d6a952cdc"><path d="M 107.21875 66.636719 L 128.789062 66.636719 L 128.789062 146.199219 L 107.21875 146.199219 Z M 107.21875 66.636719 " clip-rule="nonzero"/></clipPath><clipPath id="b77d11ac89"><path d="M 121.890625 70.328125 C 114.644531 80.933594 116.585938 78.765625 118.003906 78.320312 C 119.722656 77.871094 122.261719 78.019531 123.90625 78.167969 C 125.027344 78.320312 126.070312 78.46875 126.894531 79.066406 C 127.714844 79.738281 128.613281 81.15625 128.6875 82.203125 C 128.761719 83.175781 128.386719 83.773438 127.640625 85.117188 C 125.550781 89 113.074219 101.847656 112.027344 105.808594 C 111.730469 107.226562 111.878906 108.050781 112.476562 108.945312 C 113.222656 110.066406 115.839844 110.4375 116.957031 111.632812 C 118.003906 112.679688 119.273438 114.023438 119.199219 115.445312 C 119.125 117.460938 114.121094 120.597656 114.492188 122.242188 C 114.792969 123.734375 118.601562 124.183594 119.574219 125.304688 C 120.246094 126.050781 120.695312 126.648438 120.617188 127.621094 C 120.617188 129.1875 118.003906 132.175781 117.40625 134.042969 C 116.957031 135.386719 116.585938 136.582031 116.882812 137.628906 C 117.257812 138.75 118.152344 139.796875 119.273438 140.46875 C 120.617188 141.363281 123.832031 141.363281 124.800781 142.109375 C 125.25 142.484375 125.472656 143.007812 125.550781 143.53125 C 125.625 143.976562 125.472656 144.652344 125.175781 145.023438 C 124.800781 145.546875 124.128906 145.921875 123.382812 146.070312 C 122.039062 146.292969 118.902344 145.921875 117.707031 145.25 C 117.035156 144.875 116.511719 144.203125 116.511719 143.53125 C 116.4375 142.859375 117.257812 141.589844 117.78125 141.214844 C 118.230469 140.914062 118.75 140.914062 119.273438 141.066406 C 119.796875 141.214844 120.617188 141.886719 120.84375 142.484375 C 121.066406 143.007812 120.917969 144.054688 120.542969 144.5 C 120.171875 145.023438 119.273438 145.546875 118.675781 145.472656 C 118.003906 145.398438 116.734375 144.5 116.585938 143.828125 C 116.359375 143.082031 116.808594 141.738281 117.632812 141.289062 C 118.75 140.617188 122.5625 141.214844 123.832031 141.664062 C 124.429688 141.8125 124.875 142.035156 125.175781 142.484375 C 125.472656 143.007812 125.625 143.976562 125.398438 144.574219 C 125.25 145.097656 124.953125 145.546875 124.355469 145.769531 C 123.382812 146.144531 120.695312 145.621094 119.199219 145.171875 C 118.003906 144.800781 117.035156 144.425781 115.988281 143.53125 C 114.71875 142.335938 113 139.796875 112.550781 138.003906 C 112.101562 136.65625 112.328125 135.238281 112.550781 134.117188 C 112.777344 133.148438 113.074219 132.476562 113.671875 131.652344 C 114.34375 130.609375 116.882812 129.488281 116.734375 128.441406 C 116.585938 127.097656 111.429688 125.902344 110.535156 124.480469 C 110.011719 123.734375 109.9375 122.988281 110.085938 122.015625 C 110.3125 120.671875 111.65625 118.582031 112.625 117.460938 C 113.449219 116.640625 115.390625 116.339844 115.390625 115.742188 C 115.316406 114.847656 111.28125 113.726562 110.011719 112.753906 C 109.265625 112.082031 108.816406 111.558594 108.367188 110.738281 C 107.921875 109.765625 107.398438 108.496094 107.324219 107.300781 C 107.324219 106.03125 107.546875 105.0625 108.367188 103.34375 C 110.386719 99.011719 125.027344 85.117188 123.679688 82.652344 C 122.785156 81.082031 115.089844 84.519531 112.851562 83.546875 C 111.503906 82.949219 110.535156 81.605469 110.386719 80.484375 C 110.234375 79.140625 111.429688 77.796875 112.402344 76.152344 C 113.820312 73.6875 117.257812 68.308594 118.75 67.1875 C 119.347656 66.816406 119.796875 66.742188 120.320312 66.742188 C 120.769531 66.742188 121.367188 67.039062 121.738281 67.414062 C 122.113281 67.710938 122.335938 68.382812 122.410156 68.832031 C 122.410156 69.355469 121.890625 70.328125 121.890625 70.328125 " clip-rule="nonzero"/></clipPath><clipPath id="f2185adbbd"><path d="M 106.105469 70.277344 L 114.988281 70.277344 L 114.988281 77.765625 L 106.105469 77.765625 Z M 106.105469 70.277344 " clip-rule="nonzero"/></clipPath><clipPath id="788b6366b7"><path d="M 109.636719 70.476562 C 115.089844 75.628906 114.792969 76.527344 114.417969 76.976562 C 113.972656 77.421875 113.074219 77.871094 112.402344 77.722656 C 111.730469 77.570312 110.683594 76.527344 110.460938 75.855469 C 110.3125 75.257812 110.683594 74.210938 111.207031 73.835938 C 111.730469 73.390625 113.222656 73.238281 113.894531 73.613281 C 114.417969 73.835938 114.941406 74.808594 114.941406 75.40625 C 114.941406 76.003906 114.570312 76.976562 114.046875 77.273438 C 113.449219 77.648438 112.328125 77.648438 111.355469 77.273438 C 109.789062 76.675781 106.574219 74.285156 106.203125 72.867188 C 105.976562 72.042969 106.574219 70.925781 107.097656 70.476562 C 107.695312 70.101562 109.636719 70.476562 109.636719 70.476562 " clip-rule="nonzero"/></clipPath><clipPath id="817d100215"><path d="M 104.847656 74.261719 L 114.808594 74.261719 L 114.808594 83.515625 L 104.847656 83.515625 Z M 104.847656 74.261719 " clip-rule="nonzero"/></clipPath><clipPath id="3a63d77820"><path d="M 108.59375 74.585938 C 114.941406 81.980469 114.121094 83.175781 113.449219 83.398438 C 112.851562 83.699219 111.355469 83.25 110.832031 82.800781 C 110.386719 82.277344 110.3125 81.308594 110.460938 80.710938 C 110.535156 80.261719 110.90625 79.8125 111.28125 79.515625 C 111.804688 79.214844 112.777344 79.066406 113.375 79.289062 C 113.972656 79.441406 114.644531 80.1875 114.792969 80.859375 C 114.867188 81.53125 114.34375 82.949219 113.671875 83.324219 C 113.074219 83.699219 112.027344 83.398438 110.984375 82.949219 C 109.265625 82.128906 105.679688 78.617188 105.082031 77.199219 C 104.78125 76.527344 104.859375 76.078125 105.007812 75.628906 C 105.230469 75.105469 105.605469 74.585938 106.054688 74.359375 C 106.652344 74.136719 108.59375 74.585938 108.59375 74.585938 " clip-rule="nonzero"/></clipPath><clipPath id="17cc90e154"><path d="M 106 73.660156 L 116.839844 73.660156 L 116.839844 80.636719 L 106 80.636719 Z M 106 73.660156 " clip-rule="nonzero"/></clipPath><clipPath id="8f86e22373"><path d="M 108.816406 73.6875 C 116.808594 77.496094 116.882812 78.765625 116.511719 79.441406 C 116.210938 80.039062 114.71875 80.636719 114.046875 80.484375 C 113.449219 80.410156 112.699219 79.664062 112.476562 79.066406 C 112.253906 78.691406 112.253906 78.09375 112.476562 77.648438 C 112.625 77.125 113.375 76.378906 113.894531 76.152344 C 114.34375 76.003906 114.941406 76.003906 115.390625 76.226562 C 115.914062 76.527344 116.882812 77.796875 116.808594 78.46875 C 116.734375 79.214844 115.914062 80.335938 115.015625 80.558594 C 113.296875 80.933594 107.246094 78.46875 106.277344 76.976562 C 105.828125 76.226562 105.976562 75.03125 106.425781 74.433594 C 106.800781 73.910156 108.816406 73.6875 108.816406 73.6875 " clip-rule="nonzero"/></clipPath><clipPath id="5aba9b28aa"><path d="M 108.71875 74.1875 L 131.996094 74.1875 L 131.996094 142 L 108.71875 142 Z M 108.71875 74.1875 " clip-rule="nonzero"/></clipPath><clipPath id="004a15f4a1"><path d="M 111.058594 141.4375 C 109.339844 139.570312 108.816406 137.703125 108.742188 136.433594 C 108.742188 135.3125 109.039062 134.417969 109.636719 133.074219 C 110.757812 130.757812 114.269531 125.378906 116.136719 124.109375 C 116.957031 123.511719 117.929688 123.136719 118.453125 123.511719 C 119.050781 123.882812 119.5 126.574219 119.050781 126.949219 C 118.675781 127.320312 117.554688 126.871094 116.734375 126.425781 C 115.613281 125.753906 113.597656 123.882812 113.222656 122.691406 C 112.925781 121.867188 113.148438 120.972656 113.671875 120.148438 C 114.269531 118.953125 116.808594 117.683594 117.632812 116.5625 C 118.152344 115.890625 118.824219 114.996094 118.527344 114.546875 C 118.152344 113.800781 115.089844 114.472656 113.671875 113.652344 C 111.953125 112.53125 109.714844 109.46875 109.265625 107.898438 C 108.964844 106.855469 109.039062 106.332031 109.5625 105.210938 C 110.90625 102.597656 117.855469 97.515625 120.917969 93.558594 C 123.53125 90.121094 128.089844 85.265625 127.191406 83.175781 C 126.296875 81.15625 118.601562 82.503906 116.210938 80.859375 C 114.417969 79.664062 112.851562 76.976562 112.925781 75.855469 C 113 75.183594 113.820312 74.433594 114.417969 74.285156 C 115.089844 74.136719 116.585938 74.585938 116.957031 75.183594 C 117.40625 75.78125 117.257812 77.347656 116.808594 77.871094 C 116.4375 78.394531 115.464844 78.765625 114.867188 78.691406 C 114.195312 78.542969 113.074219 77.421875 112.925781 76.824219 C 112.777344 76.300781 112.851562 75.78125 113.148438 75.40625 C 113.449219 74.882812 114.269531 74.285156 114.867188 74.210938 C 115.464844 74.136719 116.4375 74.585938 116.808594 74.957031 C 117.183594 75.332031 116.957031 75.929688 117.332031 76.300781 C 118.003906 76.976562 119.648438 77.570312 121.140625 77.871094 C 123.234375 78.246094 126.742188 77.199219 128.613281 77.648438 C 129.808594 77.945312 130.851562 78.394531 131.375 79.140625 C 131.972656 79.886719 131.972656 81.230469 131.972656 82.277344 C 131.972656 83.175781 131.75 83.773438 131.375 84.894531 C 130.554688 86.984375 128.835938 90.34375 126.667969 93.332031 C 123.605469 97.589844 113.894531 104.6875 113.820312 107.152344 C 113.820312 108.050781 114.644531 108.496094 115.464844 109.019531 C 116.585938 109.691406 119.199219 109.617188 120.46875 110.363281 C 121.441406 110.960938 122.261719 111.785156 122.636719 112.605469 C 123.007812 113.425781 123.160156 114.25 123.007812 115.144531 C 122.710938 116.5625 121.515625 118.953125 120.46875 120 C 119.722656 120.820312 118.230469 120.671875 118.003906 121.417969 C 117.707031 122.539062 121.292969 125.230469 120.992188 126.648438 C 120.769531 127.84375 118.378906 128.292969 117.257812 129.5625 C 115.988281 130.90625 114.570312 133.148438 113.894531 134.640625 C 113.375 135.613281 112.777344 136.507812 112.925781 137.253906 C 113.074219 137.929688 114.34375 138.226562 114.570312 138.898438 C 114.792969 139.496094 114.71875 140.46875 114.34375 140.914062 C 114.046875 141.4375 113.148438 141.886719 112.550781 141.960938 C 112.027344 142.035156 111.058594 141.4375 111.058594 141.4375 " clip-rule="nonzero"/></clipPath><clipPath id="d807b2fd05"><path d="M 70.628906 88.609375 L 86.5625 88.609375 L 86.5625 109.484375 L 70.628906 109.484375 Z M 70.628906 88.609375 " clip-rule="nonzero"/></clipPath><clipPath id="2228b28cbd"><path d="M 80.804688 102.894531 C 78.9375 105.507812 77.742188 105.136719 77.367188 104.539062 C 76.769531 103.566406 78.5625 98.859375 78.191406 98.710938 C 77.890625 98.5625 76.695312 100.503906 76.324219 101.476562 C 75.949219 102.371094 75.800781 104.089844 75.949219 104.164062 C 76.097656 104.238281 78.265625 99.234375 78.191406 99.160156 C 78.042969 99.085938 75.875 104.164062 74.980469 104.238281 C 74.382812 104.3125 73.484375 103.34375 73.484375 102.519531 C 73.410156 100.804688 79.011719 96.246094 80.507812 93.78125 C 81.550781 92.136719 81.550781 90.269531 82.449219 89.449219 C 83.121094 88.851562 84.242188 88.554688 84.914062 88.703125 C 85.511719 88.851562 86.183594 89.597656 86.40625 90.121094 C 86.558594 90.644531 86.558594 91.316406 86.332031 91.765625 C 85.960938 92.289062 85.0625 92.289062 84.390625 92.960938 C 82.972656 94.304688 81.105469 97.367188 79.535156 99.832031 C 77.742188 102.671875 76.023438 107.898438 74.304688 108.945312 C 73.484375 109.46875 72.363281 109.46875 71.765625 109.09375 C 71.167969 108.722656 70.570312 107.453125 70.722656 106.777344 C 70.871094 106.105469 72.066406 105.882812 72.886719 104.984375 C 74.304688 103.269531 77.742188 96.621094 78.042969 96.769531 C 78.191406 96.84375 77.667969 98.785156 77.144531 99.832031 C 76.546875 100.953125 75.5 102.671875 74.53125 103.042969 C 73.785156 103.34375 72.511719 103.117188 71.992188 102.597656 C 71.542969 102.148438 71.242188 100.878906 71.542969 100.132812 C 71.917969 99.011719 74.007812 97.441406 74.980469 97.066406 C 75.5 96.769531 75.949219 96.695312 76.398438 96.917969 C 76.996094 97.144531 78.117188 98.261719 78.191406 98.9375 C 78.191406 99.683594 77.292969 100.953125 76.621094 101.175781 C 76.023438 101.476562 75.054688 101.25 74.53125 100.878906 C 74.082031 100.503906 73.632812 99.535156 73.707031 98.9375 C 73.707031 98.339844 74.230469 97.441406 74.753906 97.144531 C 75.425781 96.84375 76.921875 96.917969 77.445312 97.441406 C 77.964844 97.964844 78.191406 99.308594 77.890625 100.132812 C 77.519531 101.175781 75.578125 102.671875 74.53125 103.042969 C 73.785156 103.34375 72.960938 103.269531 72.4375 102.96875 C 71.917969 102.597656 71.394531 101.921875 71.394531 101.175781 C 71.320312 100.054688 72.960938 98.039062 73.785156 96.84375 C 74.53125 95.875 75.054688 95.125 75.949219 94.378906 C 77.21875 93.558594 79.535156 92.136719 80.730469 92.289062 C 81.550781 92.4375 82.300781 93.109375 82.597656 93.855469 C 83.046875 94.976562 82.597656 97.144531 82 98.9375 C 81.105469 101.324219 78.488281 105.0625 76.847656 106.855469 C 75.800781 107.972656 74.753906 108.871094 73.859375 109.242188 C 73.261719 109.46875 72.738281 109.542969 72.289062 109.320312 C 71.691406 109.09375 71.019531 108.496094 70.796875 107.824219 C 70.570312 107.152344 70.796875 106.332031 71.242188 105.210938 C 72.214844 102.671875 76.25 96.472656 78.488281 93.632812 C 80.058594 91.691406 81.550781 89.746094 82.820312 89.074219 C 83.570312 88.703125 84.316406 88.476562 84.914062 88.703125 C 85.511719 88.925781 86.332031 89.824219 86.480469 90.644531 C 86.707031 91.691406 86.109375 92.960938 85.363281 94.378906 C 84.089844 96.992188 79.535156 102.222656 77.667969 104.164062 C 76.847656 105.0625 76.472656 105.582031 75.652344 105.957031 C 74.679688 106.332031 72.960938 106.777344 72.066406 106.257812 C 71.242188 105.808594 70.644531 104.238281 70.722656 102.96875 C 70.722656 101.25 72.4375 98.261719 73.785156 96.695312 C 74.902344 95.351562 76.546875 94.15625 77.816406 93.78125 C 78.714844 93.558594 79.535156 93.484375 80.28125 93.929688 C 81.253906 94.527344 82.375 96.769531 82.671875 98.039062 C 82.820312 99.011719 82.597656 99.757812 82.375 100.726562 C 82 102 81.105469 103.640625 80.28125 104.761719 C 79.683594 105.660156 79.160156 106.480469 78.191406 107.003906 C 77.144531 107.527344 74.980469 107.898438 73.933594 107.601562 C 73.1875 107.375 72.589844 106.777344 72.140625 106.105469 C 71.617188 105.210938 71.394531 103.714844 71.617188 102.296875 C 71.839844 100.429688 73.410156 97.144531 74.457031 95.722656 C 75.128906 94.828125 75.800781 94.304688 76.546875 93.929688 C 77.292969 93.558594 78.117188 93.257812 78.9375 93.484375 C 80.058594 93.855469 81.550781 95.125 82.148438 96.472656 C 82.898438 98.1875 82.671875 101.476562 82.222656 103.417969 C 81.851562 104.910156 81.253906 106.40625 80.28125 107.300781 C 79.386719 108.125 77.667969 109.019531 76.847656 108.644531 C 75.875 108.125 75.351562 104.613281 75.578125 103.117188 C 75.726562 102 76.546875 100.878906 77.21875 100.28125 C 77.667969 99.832031 78.117188 99.609375 78.640625 99.535156 C 79.238281 99.535156 80.207031 99.832031 80.582031 100.355469 C 80.953125 100.878906 80.804688 102.894531 80.804688 102.894531 " clip-rule="nonzero"/></clipPath></defs><g fill="#000000" fill-opacity="1"><g transform="translate(27.183873, 146.518102)"><g><path d="M 60.421875 -22.125 C 60.421875 -18.863281 59.6875 -15.757812 58.21875 -12.8125 C 56.738281 -9.851562 54.757812 -7.445312 52.28125 -5.59375 C 47.46875 -1.863281 41.023438 0 32.953125 0 L 8.734375 0 L 8.734375 -79.171875 L 30.15625 -79.171875 C 41.71875 -79.171875 49.242188 -75.597656 52.734375 -68.453125 C 53.984375 -65.890625 54.609375 -63.289062 54.609375 -60.65625 C 54.609375 -58.019531 54.410156 -55.960938 54.015625 -54.484375 C 53.554688 -52.929688 52.9375 -51.457031 52.15625 -50.0625 C 50.375 -47.03125 48.082031 -44.894531 45.28125 -43.65625 C 49.945312 -42.414062 53.632812 -39.929688 56.34375 -36.203125 C 59.0625 -32.398438 60.421875 -27.707031 60.421875 -22.125 Z M 46.453125 -59.375 C 46.453125 -67.363281 41.019531 -71.359375 30.15625 -71.359375 L 16.875 -71.359375 L 16.875 -46.6875 L 32.484375 -46.6875 C 36.671875 -46.6875 40.046875 -47.734375 42.609375 -49.828125 C 45.171875 -51.921875 46.453125 -55.101562 46.453125 -59.375 Z M 52.28125 -23.640625 C 52.28125 -25.960938 51.851562 -28.015625 51 -29.796875 C 50.0625 -31.585938 48.894531 -33.140625 47.5 -34.453125 C 44.394531 -37.171875 40.75 -38.53125 36.5625 -38.53125 L 16.875 -38.53125 L 16.875 -7.796875 L 35.28125 -7.796875 C 40.25 -7.796875 44.320312 -9.234375 47.5 -12.109375 C 50.6875 -15.054688 52.28125 -18.898438 52.28125 -23.640625 Z M 52.28125 -23.640625 "/></g></g></g><g fill="#000000" fill-opacity="1"><g transform="translate(72.350373, 146.518102)"><g><path d="M 81.375 -24.21875 C 78.425781 -16.613281 73.613281 -10.519531 66.9375 -5.9375 C 60.1875 -1.195312 52.773438 1.171875 44.703125 1.171875 C 33.765625 1.171875 24.410156 -2.863281 16.640625 -10.9375 C 9.035156 -18.851562 5.234375 -28.363281 5.234375 -39.46875 C 5.234375 -44.976562 6.242188 -50.21875 8.265625 -55.1875 C 10.285156 -60.070312 13.078125 -64.378906 16.640625 -68.109375 C 24.410156 -76.179688 33.765625 -80.21875 44.703125 -80.21875 C 52.773438 -80.21875 60.148438 -77.925781 66.828125 -73.34375 C 73.503906 -68.6875 78.316406 -62.59375 81.265625 -55.0625 L 72.296875 -55.0625 C 68.023438 -62.90625 61.660156 -68.109375 53.203125 -70.671875 C 50.410156 -71.441406 47.191406 -71.828125 43.546875 -71.828125 C 39.890625 -71.828125 36.160156 -70.972656 32.359375 -69.265625 C 28.554688 -67.484375 25.257812 -65.117188 22.46875 -62.171875 C 16.414062 -55.878906 13.390625 -48.3125 13.390625 -39.46875 C 13.390625 -30.695312 16.414062 -23.164062 22.46875 -16.875 C 28.601562 -10.4375 36.015625 -7.21875 44.703125 -7.21875 C 50.597656 -7.21875 56.03125 -8.769531 61 -11.875 C 65.894531 -14.976562 69.703125 -19.09375 72.421875 -24.21875 Z M 81.375 -24.21875 "/></g></g></g><g clip-path="url(#6d6a952cdc)"><g clip-path="url(#b77d11ac89)"><path fill="#000000" d="M 104.335938 63.753906 L 131.675781 63.753906 L 131.675781 149.082031 L 104.335938 149.082031 Z M 104.335938 63.753906 " fill-opacity="1" fill-rule="nonzero"/></g></g><g clip-path="url(#f2185adbbd)"><g clip-path="url(#788b6366b7)"><path fill="#000000" d="M 103.214844 67.488281 L 117.933594 67.488281 L 117.933594 80.710938 L 103.214844 80.710938 Z M 103.214844 67.488281 " fill-opacity="1" fill-rule="nonzero"/></g></g><g clip-path="url(#817d100215)"><g clip-path="url(#3a63d77820)"><path fill="#000000" d="M 102.019531 71.371094 L 117.757812 71.371094 L 117.757812 86.460938 L 102.019531 86.460938 Z M 102.019531 71.371094 " fill-opacity="1" fill-rule="nonzero"/></g></g><g clip-path="url(#17cc90e154)"><g clip-path="url(#8f86e22373)"><path fill="#000000" d="M 103.289062 70.699219 L 119.800781 70.699219 L 119.800781 83.546875 L 103.289062 83.546875 Z M 103.289062 70.699219 " fill-opacity="1" fill-rule="nonzero"/></g></g><g clip-path="url(#5aba9b28aa)"><g clip-path="url(#004a15f4a1)"><path fill="#000000" d="M 105.753906 71.222656 L 134.960938 71.222656 L 134.960938 145.039062 L 105.753906 145.039062 Z M 105.753906 71.222656 " fill-opacity="1" fill-rule="nonzero"/></g></g><g clip-path="url(#d807b2fd05)"><g clip-path="url(#2228b28cbd)"><path fill="#000000" d="M 67.734375 85.714844 L 89.542969 85.714844 L 89.542969 112.382812 L 67.734375 112.382812 Z M 67.734375 85.714844 " fill-opacity="1" fill-rule="nonzero"/></g></g></svg>