<svg xmlns="http://www.w3.org/2000/svg" xmlns:xlink="http://www.w3.org/1999/xlink" width="387" zoomAndPan="magnify" viewBox="0 0 290.25 85.499998" height="114" preserveAspectRatio="xMidYMid meet" version="1.0"><defs><g/><clipPath id="d87134f67c"><path d="M 158.5 29.226562 L 167.613281 29.226562 L 167.613281 53.886719 L 158.5 53.886719 Z M 158.5 29.226562 " clip-rule="nonzero"/></clipPath><clipPath id="2fa1139942"><path d="M 159.414062 53.667969 C 158.742188 52.988281 158.535156 52.308594 158.507812 51.847656 C 158.507812 51.441406 158.625 51.117188 158.859375 50.628906 C 159.296875 49.785156 160.671875 47.832031 161.402344 47.371094 C 161.726562 47.152344 162.105469 47.019531 162.308594 47.152344 C 162.542969 47.289062 162.71875 48.265625 162.542969 48.402344 C 162.398438 48.539062 161.957031 48.375 161.636719 48.210938 C 161.199219 47.96875 160.410156 47.289062 160.261719 46.855469 C 160.144531 46.554688 160.234375 46.230469 160.4375 45.933594 C 160.671875 45.5 161.667969 45.035156 161.988281 44.628906 C 162.191406 44.386719 162.457031 44.058594 162.339844 43.898438 C 162.191406 43.625 160.992188 43.871094 160.4375 43.570312 C 159.765625 43.164062 158.886719 42.050781 158.710938 41.480469 C 158.59375 41.101562 158.625 40.910156 158.828125 40.503906 C 159.355469 39.554688 162.074219 37.710938 163.273438 36.269531 C 164.296875 35.023438 166.082031 33.257812 165.730469 32.5 C 165.378906 31.765625 162.367188 32.253906 161.433594 31.65625 C 160.730469 31.222656 160.117188 30.246094 160.144531 29.839844 C 160.175781 29.59375 160.496094 29.324219 160.730469 29.269531 C 160.992188 29.214844 161.578125 29.378906 161.726562 29.59375 C 161.898438 29.8125 161.839844 30.382812 161.667969 30.570312 C 161.519531 30.761719 161.140625 30.898438 160.90625 30.871094 C 160.640625 30.816406 160.203125 30.410156 160.144531 30.191406 C 160.085938 30 160.117188 29.8125 160.234375 29.675781 C 160.351562 29.484375 160.671875 29.269531 160.90625 29.242188 C 161.140625 29.214844 161.519531 29.378906 161.667969 29.511719 C 161.8125 29.648438 161.726562 29.867188 161.871094 30 C 162.132812 30.246094 162.777344 30.464844 163.363281 30.570312 C 164.179688 30.707031 165.554688 30.328125 166.289062 30.488281 C 166.753906 30.597656 167.164062 30.761719 167.371094 31.03125 C 167.605469 31.304688 167.605469 31.792969 167.605469 32.171875 C 167.605469 32.5 167.515625 32.714844 167.371094 33.121094 C 167.046875 33.882812 166.375 35.105469 165.527344 36.1875 C 164.328125 37.734375 160.527344 40.316406 160.496094 41.210938 C 160.496094 41.535156 160.816406 41.699219 161.140625 41.886719 C 161.578125 42.132812 162.601562 42.105469 163.097656 42.378906 C 163.480469 42.59375 163.800781 42.894531 163.949219 43.191406 C 164.09375 43.488281 164.152344 43.789062 164.09375 44.113281 C 163.976562 44.628906 163.507812 45.5 163.097656 45.878906 C 162.808594 46.175781 162.222656 46.121094 162.132812 46.394531 C 162.015625 46.800781 163.421875 47.777344 163.304688 48.292969 C 163.214844 48.726562 162.28125 48.890625 161.839844 49.351562 C 161.34375 49.839844 160.789062 50.65625 160.527344 51.199219 C 160.320312 51.550781 160.085938 51.875 160.144531 52.148438 C 160.203125 52.390625 160.699219 52.5 160.789062 52.746094 C 160.875 52.960938 160.847656 53.3125 160.699219 53.476562 C 160.582031 53.667969 160.234375 53.828125 160 53.855469 C 159.792969 53.882812 159.414062 53.667969 159.414062 53.667969 " clip-rule="nonzero"/></clipPath></defs><g fill="#000000" fill-opacity="1"><g transform="translate(37.750577, 58.354866)"><g><path d="M 18.171875 -9.328125 C 18.171875 -10.359375 17.785156 -11.253906 17.015625 -12.015625 C 16.253906 -12.773438 15.34375 -13.15625 14.28125 -13.15625 L 9.84375 -13.15625 L 9.84375 -5.484375 L 14.28125 -5.484375 C 15.34375 -5.484375 16.253906 -5.859375 17.015625 -6.609375 C 17.785156 -7.359375 18.171875 -8.265625 18.171875 -9.328125 Z M 15.96875 -22.625 C 15.96875 -23.65625 15.597656 -24.53125 14.859375 -25.25 C 14.128906 -25.96875 13.265625 -26.328125 12.265625 -26.328125 L 9.84375 -26.328125 L 9.84375 -18.921875 L 12.265625 -18.921875 C 13.265625 -18.921875 14.128906 -19.285156 14.859375 -20.015625 C 15.597656 -20.753906 15.96875 -21.625 15.96875 -22.625 Z M 25.34375 -9.140625 C 25.34375 -6.390625 24.5 -4.175781 22.8125 -2.5 C 21.125 -0.832031 18.75 0 15.6875 0 L 2.8125 0 L 2.8125 -31.859375 L 13.765625 -31.859375 C 15.578125 -31.859375 17.144531 -31.5 18.46875 -30.78125 C 19.800781 -30.0625 20.832031 -29.097656 21.5625 -27.890625 C 22.300781 -26.691406 22.671875 -25.359375 22.671875 -23.890625 C 22.671875 -22.265625 22.332031 -20.863281 21.65625 -19.6875 C 20.988281 -18.519531 20.0625 -17.671875 18.875 -17.140625 C 20.65625 -16.734375 22.175781 -15.832031 23.4375 -14.4375 C 24.707031 -13.050781 25.34375 -11.285156 25.34375 -9.140625 Z M 25.34375 -9.140625 "/></g></g></g><g fill="#000000" fill-opacity="1"><g transform="translate(60.983878, 58.354866)"><g><path d="M 21.265625 -6.375 L 21.265625 0 L 2.8125 0 L 2.8125 -31.859375 L 21.265625 -31.859375 L 21.265625 -25.484375 L 9.84375 -25.484375 L 9.84375 -19.15625 L 20.796875 -19.15625 L 20.796875 -12.78125 L 9.84375 -12.78125 L 9.84375 -6.375 Z M 21.265625 -6.375 "/></g></g></g><g fill="#000000" fill-opacity="1"><g transform="translate(82.484026, 58.354866)"><g><path d="M 16.34375 -25.484375 L 16.34375 0 L 9.328125 0 L 9.328125 -25.484375 L 0.234375 -25.484375 L 0.234375 -31.859375 L 25.4375 -31.859375 L 25.4375 -25.484375 Z M 16.34375 -25.484375 "/></g></g></g><g fill="#000000" fill-opacity="1"><g transform="translate(105.576802, 58.354866)"><g><path d="M 20.140625 -12.171875 L 16.109375 -23.515625 L 12.078125 -12.171875 Z M 32.046875 0 L 24.5 0 L 22.203125 -6.421875 L 10.078125 -6.421875 L 7.78125 0 L 0.234375 0 L 13.15625 -31.859375 L 19.109375 -31.859375 Z M 32.046875 0 "/></g></g></g><g fill="#000000" fill-opacity="1"><g transform="translate(135.274274, 58.354866)"><g/></g></g><g fill="#000000" fill-opacity="1"><g transform="translate(144.408179, 58.354866)"><g><path d="M 25.8125 -10.828125 L 33.640625 -10.828125 C 32.921875 -8.640625 31.796875 -6.691406 30.265625 -4.984375 C 28.734375 -3.285156 26.921875 -1.953125 24.828125 -0.984375 C 22.734375 -0.015625 20.46875 0.46875 18.03125 0.46875 C 15.78125 0.46875 13.664062 0.046875 11.6875 -0.796875 C 9.707031 -1.640625 7.957031 -2.816406 6.4375 -4.328125 C 4.925781 -5.847656 3.75 -7.597656 2.90625 -9.578125 C 2.0625 -11.554688 1.640625 -13.671875 1.640625 -15.921875 C 1.640625 -18.171875 2.0625 -20.285156 2.90625 -22.265625 C 3.75 -24.253906 4.925781 -26.003906 6.4375 -27.515625 C 7.957031 -29.035156 9.707031 -30.21875 11.6875 -31.0625 C 13.664062 -31.90625 15.78125 -32.328125 18.03125 -32.328125 C 20.46875 -32.328125 22.722656 -31.84375 24.796875 -30.875 C 26.878906 -29.90625 28.6875 -28.582031 30.21875 -26.90625 C 31.75 -25.238281 32.875 -23.3125 33.59375 -21.125 L 25.765625 -21.125 C 25.109375 -22.5625 24.0625 -23.691406 22.625 -24.515625 C 21.1875 -25.347656 19.65625 -25.765625 18.03125 -25.765625 C 16.3125 -25.765625 14.75 -25.316406 13.34375 -24.421875 C 11.945312 -23.535156 10.832031 -22.347656 10 -20.859375 C 9.175781 -19.378906 8.765625 -17.734375 8.765625 -15.921875 C 8.765625 -14.109375 9.175781 -12.460938 10 -10.984375 C 10.832031 -9.503906 11.945312 -8.316406 13.34375 -7.421875 C 14.75 -6.535156 16.3125 -6.09375 18.03125 -6.09375 C 19.6875 -6.09375 21.234375 -6.53125 22.671875 -7.40625 C 24.109375 -8.28125 25.15625 -9.421875 25.8125 -10.828125 Z M 25.8125 -10.828125 "/></g></g></g><g fill="#000000" fill-opacity="1"><g transform="translate(176.635112, 58.354866)"><g><path d="M 20.140625 -12.171875 L 16.109375 -23.515625 L 12.078125 -12.171875 Z M 32.046875 0 L 24.5 0 L 22.203125 -6.421875 L 10.078125 -6.421875 L 7.78125 0 L 0.234375 0 L 13.15625 -31.859375 L 19.109375 -31.859375 Z M 32.046875 0 "/></g></g></g><g fill="#000000" fill-opacity="1"><g transform="translate(206.332574, 58.354866)"><g><path d="M 20.796875 -12.78125 L 9.84375 -12.78125 L 9.84375 0 L 2.8125 0 L 2.8125 -31.859375 L 21.265625 -31.859375 L 21.265625 -25.484375 L 9.84375 -25.484375 L 9.84375 -19.15625 L 20.796875 -19.15625 Z M 20.796875 -12.78125 "/></g></g></g><g fill="#000000" fill-opacity="1"><g transform="translate(227.364315, 58.354866)"><g><path d="M 21.265625 -6.375 L 21.265625 0 L 2.8125 0 L 2.8125 -31.859375 L 21.265625 -31.859375 L 21.265625 -25.484375 L 9.84375 -25.484375 L 9.84375 -19.15625 L 20.796875 -19.15625 L 20.796875 -12.78125 L 9.84375 -12.78125 L 9.84375 -6.375 Z M 21.265625 -6.375 "/></g></g></g><g clip-path="url(#d87134f67c)"><g clip-path="url(#2fa1139942)"><path fill="#000000" d="M 157.335938 28.15625 L 168.773438 28.15625 L 168.773438 54.960938 L 157.335938 54.960938 Z M 157.335938 28.15625 " fill-opacity="1" fill-rule="nonzero"/></g></g></svg>